# Blender 3.4.1
# www.blender.org
mtllib Create.mtl
o Cube
v 1.000000 1.000000 -1.000000
v 1.000000 -1.000000 -1.000000
v 1.000000 1.000000 1.000000
v 1.000000 -1.000000 1.000000
v -1.000000 1.000000 -1.000000
v -1.000000 -1.000000 -1.000000
v -1.000000 1.000000 1.000000
v -1.000000 -1.000000 1.000000
vn -0.0000 1.0000 -0.0000
vn -0.0000 -0.0000 1.0000
vn -1.0000 -0.0000 -0.0000
vn -0.0000 -1.0000 -0.0000
vn 1.0000 -0.0000 -0.0000
vn -0.0000 -0.0000 -1.0000
vt 0.003487 -0.006808
vt 0.998777 0.998777
vt -0.006753 0.997508
vt 1.012975 0.001907
vt 0.998777 0.001223
vt -0.006753 -0.008784
vt 0.003487 0.993431
vt 0.990646 0.996810
vt 0.001223 0.998777
vt 0.990647 0.014466
vt 1.012975 1.003205
vt 0.001223 0.001223
vt 1.003727 -0.006808
vt 0.002888 1.008913
vt 0.999539 0.997509
vt 0.002888 0.003414
vt 0.011677 0.001907
vt 0.999539 -0.008784
vt 1.003726 0.993431
vt 0.008303 0.996810
vt 1.008387 1.008913
vt 0.008303 0.014466
vt 1.008387 0.003414
vt 0.011677 1.003205
s 0
usemtl Material
f 1/1/1 5/13/1 7/19/1 3/7/1
f 4/10/2 3/8/2 7/20/2 8/22/2
f 8/23/3 7/21/3 5/14/3 6/16/3
f 6/17/4 2/4/4 4/11/4 8/24/4
f 2/5/5 1/2/5 3/9/5 4/12/5
f 6/18/6 5/15/6 1/3/6 2/6/6
